<?xml version="1.0" encoding="UTF-8" standalone="no"?>
<svg
   xmlns:dc="http://purl.org/dc/elements/1.1/"
   xmlns:cc="http://creativecommons.org/ns#"
   xmlns:rdf="http://www.w3.org/1999/02/22-rdf-syntax-ns#"
   xmlns:svg="http://www.w3.org/2000/svg"
   xmlns="http://www.w3.org/2000/svg"
   xmlns:sodipodi="http://sodipodi.sourceforge.net/DTD/sodipodi-0.dtd"
   xmlns:inkscape="http://www.inkscape.org/namespaces/inkscape"
   width="643"
   height="250"
   version="1.1"
   id="svg885"
   sodipodi:docname="logo.svg"
   inkscape:version="0.92.3 (2405546, 2018-03-11)">
  <metadata
     id="metadata889">
    <rdf:RDF>
      <cc:Work
         rdf:about="">
        <dc:format>image/svg+xml</dc:format>
        <dc:type
           rdf:resource="http://purl.org/dc/dcmitype/StillImage" />
        <dc:title></dc:title>
      </cc:Work>
    </rdf:RDF>
  </metadata>
  <sodipodi:namedview
     pagecolor="#ffffff"
     bordercolor="#666666"
     borderopacity="1"
     objecttolerance="10"
     gridtolerance="10"
     guidetolerance="10"
     inkscape:pageopacity="0"
     inkscape:pageshadow="2"
     inkscape:window-width="1920"
     inkscape:window-height="1043"
     id="namedview887"
     showgrid="false"
     inkscape:zoom="1.0225505"
     inkscape:cx="314.32574"
     inkscape:cy="-16.23714"
     inkscape:window-x="0"
     inkscape:window-y="0"
     inkscape:window-maximized="1"
     inkscape:current-layer="svg885" />
  <defs
     id="SvgjsDefs1075" />
  <g
     id="SvgjsG1076"
     featurekey="root"
     style="fill:#77f2f0"
     transform="translate(0,115)" />
  <g
     id="g917">
    <g
       style="fill:#000000"
       transform="matrix(1.4,0,0,1.4,-2.8676806,86.780608)"
       featurekey="symbol1"
       id="SvgjsG1077">
      <path
         inkscape:connector-curvature="0"
         id="path874"
         d="m 55,28.860046 c 0,3.789978 -3.080017,6.869995 -6.859985,6.869995 h -8.79004 l -1.22998,-1.760009 c 1.440002,-1.820008 2.23999,-4.090027 2.23999,-6.440003 0,-5.720031 -4.649963,-10.369995 -10.369995,-10.369995 -5.709961,0 -10.359985,4.649964 -10.359985,10.369995 0,2.339966 0.799988,4.609986 2.25,6.429993 l -1.229981,1.770019 H 13.75 c -4.8200073,0 -8.75,-3.920043 -8.75,-8.75 C 5,22.160034 8.9299927,18.23999 13.75,18.23999 13.73999,18.030029 13.73999,17.820007 13.73999,17.610046 13.73999,10.380005 19.619995,4.5 26.849976,4.5 c 5.350036,0 10.130004,3.25 12.130004,8.160034 5.210022,0.01001 9.470032,4.179993 9.619996,9.349976 C 52.169983,22.25 55,25.230041 55,28.860046 Z" />
      <path
         inkscape:connector-curvature="0"
         id="path876"
         d="m 48.169983,46.450012 c 0,2.77002 -2.26001,5.02002 -5.029968,5.02002 -2.77002,0 -5.03003,-2.25 -5.03003,-5.02002 0,-1.299988 0.51001,-2.549988 1.400025,-3.46997 L 33.909973,34.910034 C 33.01001,35.400024 32.030029,35.710022 31,35.820007 v 9.729981 c 2.289978,0.460022 4.030029,2.490051 4.030029,4.920044 C 35.030029,53.23999 32.770019,55.5 30,55.5 c -2.770019,0 -5.030029,-2.26001 -5.030029,-5.029968 0,-2.429993 1.740051,-4.460022 4.030029,-4.920044 v -9.719971 c -1.02002,-0.119995 -2.01001,-0.429993 -2.919983,-0.919983 l -5.600037,8.070007 c 0.890015,0.919983 1.400025,2.169983 1.400025,3.469971 0,2.77002 -2.25,5.02002 -5.02002,5.02002 -2.769958,0 -5.029968,-2.25 -5.029968,-5.02002 0,-2.770019 2.26001,-5.029968 5.029968,-5.029968 0.690003,0 1.369995,0.139953 1.980042,0.409973 l 5.599975,-8.049988 c -1.780029,-1.590027 -2.809997,-3.850036 -2.809997,-6.25 0,-4.609985 3.75,-8.369995 8.359985,-8.369995 4.619995,0 8.369995,3.76001 8.369995,8.369995 0,2.399964 -1.029968,4.669983 -2.809997,6.25 l 5.609985,8.049988 c 0.620056,-0.27002 1.290039,-0.409973 1.980042,-0.409973 2.769958,0 5.029968,2.259949 5.029968,5.029968 z" />
    </g>
    <g
       style="fill:#000000"
       transform="matrix(4.8427809,0,0,4.8427809,94.132319,47.447828)"
       featurekey="text1"
       id="SvgjsG1078">
      <path
         inkscape:connector-curvature="0"
         id="path879"
         d="m 3.18,17.22 h 7.84 V 20 H 0 V 5 H 11.02 V 7.76 H 3.18 3.16 v 3.36 h 5.8 v 2.7 h -5.8 v 3.4 0 z m 17.9,-0.06 V 20 H 12.4 V 5 h 3.18 V 17.16 Z M 25.24,20 H 22.08 V 5 h 3.16 z M 35.78,5 h 3.2 V 19.94 L 30.02,12.1 V 20 H 26.86 V 5.08 l 8.92,7.88 z m 10.24,0 h 1.44 c 2.46,0 5.04,2.28 5.04,5.18 0,2.9 -2.2,5.24 -5.04,5.24 -0.78,0 -3.9,0.04 -3.9,0.04 V 20 H 40.4 V 5 Z m 1.4,7.64 c 1.18,-0.24 2,-1.12 2,-2.46 0,-1.34 -0.82,-2.14 -2,-2.36 C 47.1,7.76 43.56,7.8 43.56,7.8 V 8 8 12.68 c 0,0 3.38,0.06 3.86,-0.04 z M 66.82,20 h -3.96 l -2.92,-4.58 c -1.2,0.04 -3.2,0.02 -3.2,0.02 V 20 H 53.56 V 5 h 7.08 c 2.84,0 5.02,2.28 5.02,5.18 0,1.96 -1,3.28 -2.5,4.3 z M 56.74,12.66 c 0,0 3.06,0.08 3.9,-0.02 1.12,-0.14 1.9,-1.14 1.9,-2.48 C 62.54,8.82 61.76,8 60.64,7.84 59.76,7.72 56.74,7.8 56.74,7.8 Z m 18.84,7.54 c -4.16,0 -7.54,-3.44 -7.54,-7.66 0,-4.22 3.38,-7.66 7.54,-7.66 4.16,0 7.54,3.44 7.54,7.66 0,4.22 -3.38,7.66 -7.54,7.66 z m 0,-12.16 c -2.38,0 -4.32,2.02 -4.32,4.5 0,2.48 1.94,4.5 4.32,4.5 2.38,0 4.32,-2.02 4.32,-4.5 0,-2.48 -1.94,-4.5 -4.32,-4.5 z M 93.7,12.18 99.14,20 H 95.62 L 91.82,14.52 87.98,20 H 84.5 L 89.92,12.18 84.96,5 h 3.52 L 91.82,9.8 95.14,5 h 3.54 z M 108.86,5 h 3.34 l -4.44,7.2 V 20 h -3.18 V 12.2 L 100.14,5 h 3.32 l 2.7,4.1 z" />
    </g>
    <g
       style="fill:#000000"
       transform="matrix(2.191416,0,0,2.191416,91.992333,138.33775)"
       featurekey="text3"
       id="SvgjsG1079">
      <path
         inkscape:connector-curvature="0"
         id="path882"
         d="m 12.207,23.496095 q -1.806641,0.585937 -3.90625,0.585937 -7.32421875,0 -7.32421875,-7.27539 0,-6.8847657 7.32421875,-6.8847657 2.099609,0 3.90625,0.5859377 v 1.5625 Q 10.400359,11.38672 8.4960625,11.38672 q -5.7128906,0 -5.7128906,5.419922 0,5.810547 5.7128906,5.810547 1.9042965,0 3.7109375,-0.683594 z m 3.437491,0.48828 h -1.875 l 5.9277,-13.965 h 2.002 l 5.957,13.965 h -2.002 l -1.8066,-4.3945 h -4.6191 l 0.49805,-1.4648 h 3.5156 l -2.6074,-6.3281 z m 24.4629,-0.48828 q -1.806641,0.585937 -3.90625,0.585937 -7.324219,0 -7.324219,-7.27539 0,-6.8847657 7.324219,-6.8847657 2.099609,0 3.90625,0.5859377 v 1.5625 Q 38.30075,11.38672 36.396453,11.38672 q -5.712891,0 -5.712891,5.419922 0,5.810547 5.712891,5.810547 1.904297,0 3.710938,-0.683594 z m 2.97859,0.48828 v -13.965 h 1.8066 v 6.1523 h 8.252 v -6.1523 h 1.8066 v 13.965 h -1.8066 v -6.3477 h -8.252 v 6.3477 z m 24.316347,-13.965 v 1.4648 h -7.3242 v 4.6875 h 6.9824 v 1.4648 h -6.9824 v 4.8828 h 7.4707 v 1.4648 h -9.2773 v -13.965 h 9.1309 z m 7.568331,13.47672 v -1.6602 q 2.197266,0.78125 4.746094,0.78125 3.603516,0 3.603516,-2.636719 0,-2.246094 -2.65625,-2.246094 h -1.7969 q -4.384766,0 -4.384766,-3.808593 0,-4.0039065 5.615235,-4.0039065 2.441406,0 4.541015,0.5859375 v 1.6602 q -2.099609,-0.78125 -4.541015,-0.78125 -3.808594,0 -3.808594,2.539063 0,2.246093 2.578125,2.246093 h 1.7969 q 4.46289,0 4.46289,3.808594 0,4.101562 -5.410156,4.101562 -2.548828,0 -4.746094,-0.585937 z m 21.923857,-13.47672 v 1.4648 h -7.3242 v 4.6875 h 6.9824 v 1.4648 h -6.9824 v 4.8828 h 7.4707 v 1.4648 h -9.2773 v -13.965 h 9.1309 z m 2.880918,13.965 v -13.965 h 5.956996 q 3.98438,0 3.98438,3.349609 0,2.72461 -3.89649,4.033203 l 4.7949,6.582 h -2.3828 l -4.4434,-6.279299 v -1.1816 q 4.00391,-0.634766 4.00391,-3.076172 0,-1.933594 -2.22656,-1.933594 h -3.9844 v 12.471 h -1.806601 z m 25.214946,-13.965 -5.9277,13.965 h -2.002 l -5.957,-13.965 h 1.9043 l 5.1172,12.09 4.9902,-12.09 z m 11.03499,0 v 1.4648 h -7.3242 v 4.6875 h 6.98241 v 1.4648 h -6.98241 v 4.8828 h 7.4707 v 1.4648 h -9.27729 v -13.965 h 9.13089 z m 2.88092,13.965 v -13.965 h 5.957 q 3.98438,0 3.98438,3.349609 0,2.72461 -3.89649,4.033203 l 4.7949,6.582 h -2.3828 l -4.4434,-6.279299 v -1.1816 q 4.00391,-0.634766 4.00391,-3.076172 0,-1.933594 -2.22656,-1.933594 h -3.9844 v 12.471 h -1.8066 z" />
    </g>
  </g>
</svg>
